<?xml version="1.0" encoding="UTF-8"?>
<svg xmlns="http://www.w3.org/2000/svg" xmlns:xlink="http://www.w3.org/1999/xlink" width="70pt" height="70pt" viewBox="0 0 70 70" version="1.1">
<g id="surface1">
<path style=" stroke:none;fill-rule:nonzero;fill:rgb(87.058824%,29.803922%,21.176471%);fill-opacity:1;" d="M 68.679688 31.882812 L 38.117188 1.320312 C 36.359375 -0.441406 33.503906 -0.441406 31.742188 1.320312 L 25.394531 7.667969 L 33.445312 15.71875 C 35.316406 15.085938 37.460938 15.507812 38.953125 17 C 40.453125 18.5 40.875 20.664062 40.226562 22.542969 L 47.984375 30.300781 C 49.863281 29.65625 52.027344 30.074219 53.527344 31.574219 C 55.621094 33.667969 55.621094 37.0625 53.527344 39.160156 C 51.429688 41.257812 48.035156 41.257812 45.9375 39.160156 C 44.363281 37.582031 43.972656 35.265625 44.773438 33.324219 L 37.535156 26.089844 L 37.535156 45.132812 C 38.046875 45.386719 38.527344 45.722656 38.953125 46.144531 C 41.050781 48.242188 41.050781 51.636719 38.953125 53.734375 C 36.859375 55.828125 33.460938 55.828125 31.367188 53.734375 C 29.273438 51.636719 29.273438 48.242188 31.367188 46.144531 C 31.886719 45.628906 32.484375 45.238281 33.125 44.976562 L 33.125 25.757812 C 32.484375 25.496094 31.886719 25.105469 31.367188 24.585938 C 29.78125 23 29.398438 20.671875 30.210938 18.722656 L 22.277344 10.785156 L 1.320312 31.738281 C -0.441406 33.5 -0.441406 36.355469 1.320312 38.117188 L 31.882812 68.679688 C 33.644531 70.4375 36.496094 70.4375 38.257812 68.679688 L 68.679688 38.257812 C 70.441406 36.496094 70.441406 33.640625 68.679688 31.882812 "/>
</g>
</svg>
