<?xml version="1.0" encoding="UTF-8"?>
<svg xmlns="http://www.w3.org/2000/svg" xmlns:xlink="http://www.w3.org/1999/xlink" width="70pt" height="70pt" viewBox="0 0 70 70" version="1.1">
<g id="surface1">
<path style=" stroke:none;fill-rule:nonzero;fill:rgb(89.019608%,30.588235%,14.901961%);fill-opacity:1;" d="M 12.34375 60.144531 L 7.300781 3.570312 L 62.699219 3.570312 L 57.648438 60.148438 L 34.988281 66.429688 Z M 12.34375 60.144531 "/>
<path style=" stroke:none;fill-rule:nonzero;fill:rgb(93.72549%,40%,16.470588%);fill-opacity:1;" d="M 35 8.195312 L 35 61.625 L 53.324219 56.546875 L 57.640625 8.195312 Z M 35 8.195312 "/>
<path style=" stroke:none;fill-rule:nonzero;fill:rgb(100%,100%,100%);fill-opacity:1;" d="M 17.621094 15.132812 L 19.492188 36.117188 L 43.542969 36.117188 L 42.734375 45.117188 L 34.992188 47.210938 L 27.261719 45.121094 L 26.746094 39.339844 L 19.78125 39.339844 L 20.777344 50.480469 L 34.988281 54.429688 L 49.21875 50.480469 L 51.128906 29.179688 L 25.839844 29.179688 L 25.203125 22.074219 L 51.757812 22.074219 L 52.378906 15.132812 Z M 17.621094 15.132812 "/>
<path style=" stroke:none;fill-rule:nonzero;fill:rgb(92.156863%,92.156863%,92.156863%);fill-opacity:1;" d="M 35 15.132812 L 17.621094 15.132812 L 19.492188 36.117188 L 35 36.117188 L 35 29.179688 L 25.839844 29.179688 L 25.203125 22.074219 L 35 22.074219 Z M 35 15.132812 "/>
<path style=" stroke:none;fill-rule:nonzero;fill:rgb(92.156863%,92.156863%,92.156863%);fill-opacity:1;" d="M 35 47.207031 L 34.992188 47.210938 L 27.261719 45.121094 L 26.746094 39.339844 L 19.78125 39.339844 L 20.777344 50.480469 L 34.988281 54.429688 L 35 54.425781 Z M 35 47.207031 "/>
</g>
</svg>
