<?xml version="1.0" encoding="UTF-8"?>
<svg xmlns="http://www.w3.org/2000/svg" xmlns:xlink="http://www.w3.org/1999/xlink" width="70pt" height="70pt" viewBox="0 0 70 70" version="1.1">
<g id="surface1">
<path style=" stroke:none;fill-rule:nonzero;fill:rgb(0.784314%,46.666667%,74.117647%);fill-opacity:1;" d="M 59.792969 7.292969 L 10.207031 7.292969 L 14.582031 56.875 L 35 62.707031 L 55.417969 56.875 Z M 59.792969 7.292969 "/>
<path style=" stroke:none;fill-rule:nonzero;fill:rgb(1.176471%,60.784314%,89.803922%);fill-opacity:1;" d="M 35 11.667969 L 35 58.1875 L 51.332031 53.519531 L 54.980469 11.667969 Z M 35 11.667969 "/>
<path style=" stroke:none;fill-rule:nonzero;fill:rgb(100%,100%,100%);fill-opacity:1;" d="M 48.269531 18.957031 L 35 18.957031 L 35 24.792969 L 42.144531 24.792969 L 41.707031 30.625 L 35 30.625 L 35 36.457031 L 41.417969 36.457031 L 40.980469 43.019531 L 35 45.0625 L 35 51.1875 L 46.519531 47.394531 L 47.542969 30.625 Z M 48.269531 18.957031 "/>
<path style=" stroke:none;fill-rule:nonzero;fill:rgb(93.333333%,93.333333%,93.333333%);fill-opacity:1;" d="M 35 18.957031 L 35 24.792969 L 22.019531 24.792969 L 21.582031 18.957031 Z M 28.292969 30.625 L 28.582031 36.457031 L 35 36.457031 L 35 30.625 Z M 28.875 39.375 L 23.042969 39.375 L 23.480469 47.394531 L 35 51.1875 L 35 45.0625 L 29.019531 43.019531 Z M 28.875 39.375 "/>
</g>
</svg>
