<?xml version="1.0" encoding="UTF-8"?>
<svg xmlns="http://www.w3.org/2000/svg" xmlns:xlink="http://www.w3.org/1999/xlink" width="70pt" height="79pt" viewBox="0 0 70 79" version="1.1">
<defs>
<filter id="alpha" filterUnits="objectBoundingBox" x="0%" y="0%" width="100%" height="100%">
  <feColorMatrix type="matrix" in="SourceGraphic" values="0 0 0 0 1 0 0 0 0 1 0 0 0 0 1 0 0 0 1 0"/>
</filter>
<mask id="mask0">
  <g filter="url(#alpha)">
<rect x="0" y="0" width="70" height="79" style="fill:rgb(0%,0%,0%);fill-opacity:0.984314;stroke:none;"/>
  </g>
</mask>
<clipPath id="clip1">
  <rect x="0" y="0" width="70" height="80"/>
</clipPath>
<g id="surface6" clip-path="url(#clip1)">
<path style=" stroke:none;fill-rule:nonzero;fill:rgb(92.156863%,92.156863%,92.156863%);fill-opacity:0.921569;" d="M 11.847656 56.292969 L 11.820312 47.972656 C 11.820312 47.972656 20.445312 50.386719 25.332031 51.632812 L 25.414062 15.261719 L 32.375 15.261719 L 32.375 61.792969 Z M 11.847656 56.292969 "/>
</g>
</defs>
<g id="surface1">
<path style=" stroke:none;fill-rule:nonzero;fill:rgb(83.137255%,72.156863%,18.823529%);fill-opacity:1;" d="M 6.496094 71.007812 L -0.00390625 0.00390625 L 69.996094 0.03125 L 63.554688 70.953125 L 34.941406 78.976562 Z M 58.285156 67.132812 L 63.71875 6.320312 L 35.050781 6.320312 L 35.269531 73.394531 Z M 32.375 15.234375 L 25.414062 15.234375 L 25.332031 51.632812 L 11.820312 47.972656 L 11.847656 56.292969 L 32.375 61.792969 Z M 32.375 15.234375 "/>
<use xlink:href="#surface6" mask="url(#mask0)"/>
<path style=" stroke:none;fill-rule:nonzero;fill:rgb(99.215686%,84.705882%,23.529412%);fill-opacity:1;" d="M 35.050781 6.292969 L 63.71875 6.292969 L 58.285156 67.105469 L 35.050781 73.367188 Z M 56.808594 56.917969 L 58.695312 34.179688 L 44.769531 35.722656 L 44.769531 23.582031 L 59.621094 23.527344 L 60.222656 15.234375 L 37.808594 15.34375 L 38.109375 45.535156 L 51.648438 43.230469 L 51.460938 49.953125 L 37.808594 53.554688 L 37.945312 61.792969 Z M 56.808594 56.917969 "/>
</g>
</svg>
