<?xml version="1.0" encoding="UTF-8"?>
<svg xmlns="http://www.w3.org/2000/svg" xmlns:xlink="http://www.w3.org/1999/xlink" width="70pt" height="77pt" viewBox="0 0 70 77" version="1.1">
<g id="surface1">
<path style=" stroke:none;fill-rule:nonzero;fill:rgb(77.647059%,23.921569%,7.843137%);fill-opacity:1;" d="M 65.617188 37.875 C 65.617188 33.921875 62.394531 30.714844 58.421875 30.714844 C 58.167969 30.714844 57.914062 30.726562 57.664062 30.753906 L 67.546875 1.75 L 25.546875 1.75 L 35.417969 30.730469 C 35.273438 30.71875 35.128906 30.714844 34.980469 30.714844 C 31.003906 30.714844 27.785156 33.921875 27.785156 37.875 C 27.785156 41.070312 29.890625 43.777344 32.796875 44.699219 C 31.261719 47.34375 29.328125 49.726562 27.136719 51.785156 C 24.15625 54.582031 20.742188 56.703125 17.054688 58.011719 C 12.660156 55.765625 10.585938 50.773438 12.457031 46.390625 C 12.667969 45.898438 12.882812 45.398438 13.089844 44.898438 C 16.273438 44.160156 18.644531 41.320312 18.644531 37.925781 C 18.644531 33.972656 15.425781 30.765625 11.449219 30.765625 C 7.476562 30.765625 4.253906 33.972656 4.253906 37.925781 C 4.253906 40.351562 5.464844 42.492188 7.320312 43.789062 C 5.539062 47.824219 2.921875 52.046875 2.105469 56.941406 C 1.128906 62.808594 2.101562 69.03125 7.199219 72.550781 C 19.074219 80.738281 31.960938 67.472656 45.550781 64.136719 C 50.476562 62.929688 55.882812 63.125 60.222656 60.625 C 63.480469 58.746094 65.628906 55.632812 66.238281 52.140625 C 66.839844 48.6875 65.964844 45.25 63.945312 42.464844 C 64.988281 41.222656 65.617188 39.621094 65.617188 37.875 Z M 42.175781 37.898438 C 42.175781 37.890625 42.175781 37.882812 42.175781 37.875 C 42.175781 35.277344 40.785156 33.003906 38.707031 31.75 L 46.5625 15.941406 L 54.429688 31.917969 C 52.5 33.199219 51.226562 35.390625 51.226562 37.875 C 51.226562 37.925781 51.230469 37.980469 51.230469 38.03125 Z M 42.175781 37.898438 "/>
<path style=" stroke:none;fill-rule:nonzero;fill:rgb(100%,100%,100%);fill-opacity:1;" d="M 67.375 37.875 C 67.375 33.527344 64.226562 29.898438 60.078125 29.121094 L 70 0 L 23.097656 0 L 33.035156 29.179688 C 29.03125 30.066406 26.027344 33.628906 26.027344 37.875 C 26.027344 41.066406 27.71875 43.867188 30.257812 45.441406 C 29.039062 47.25 27.589844 48.953125 25.929688 50.511719 C 23.300781 52.984375 20.367188 54.855469 17.207031 56.089844 C 14.023438 54.097656 12.675781 50.347656 14.074219 47.078125 L 14.183594 46.820312 C 14.253906 46.660156 14.320312 46.5 14.390625 46.339844 C 17.886719 45.125 20.402344 41.816406 20.402344 37.925781 C 20.402344 33.015625 16.386719 29.015625 11.449219 29.015625 C 6.511719 29.015625 2.496094 33.015625 2.496094 37.925781 C 2.496094 40.40625 3.519531 42.652344 5.167969 44.269531 C 4.871094 44.902344 4.554688 45.546875 4.234375 46.207031 C 2.726562 49.285156 1.015625 52.777344 0.371094 56.65625 C -0.914062 64.355469 1.15625 70.507812 6.199219 73.988281 C 9.257812 76.097656 12.363281 76.925781 15.492188 76.925781 C 21.378906 76.925781 27.332031 73.984375 33.15625 71.105469 C 37.351562 69.03125 41.6875 66.886719 45.972656 65.835938 C 47.566406 65.445312 49.207031 65.210938 50.945312 64.960938 C 54.386719 64.464844 57.949219 63.953125 61.101562 62.136719 C 64.757812 60.03125 67.261719 56.496094 67.96875 52.4375 C 68.578125 48.957031 67.847656 45.46875 66.0625 42.511719 C 66.894531 41.160156 67.375 39.574219 67.375 37.875 Z M 63.859375 37.875 C 63.859375 40.859375 61.421875 43.285156 58.421875 43.285156 C 55.421875 43.285156 52.984375 40.859375 52.984375 37.875 C 52.984375 34.890625 55.421875 32.464844 58.421875 32.464844 C 61.421875 32.464844 63.859375 34.890625 63.859375 37.875 Z M 65.097656 3.496094 L 56.335938 29.214844 C 55.953125 29.304688 55.585938 29.417969 55.226562 29.554688 L 46.570312 11.984375 L 37.886719 29.453125 C 37.511719 29.324219 37.125 29.214844 36.730469 29.136719 L 28 3.496094 Z M 34.980469 32.464844 C 37.980469 32.464844 40.417969 34.890625 40.417969 37.875 C 40.417969 40.859375 37.980469 43.285156 34.980469 43.285156 C 31.980469 43.285156 29.542969 40.859375 29.542969 37.875 C 29.542969 34.890625 31.980469 32.464844 34.980469 32.464844 Z M 11.449219 32.515625 C 14.449219 32.515625 16.886719 34.941406 16.886719 37.925781 C 16.886719 40.910156 14.449219 43.339844 11.449219 43.339844 C 8.449219 43.339844 6.011719 40.910156 6.011719 37.925781 C 6.011719 34.941406 8.449219 32.515625 11.449219 32.515625 Z M 64.507812 51.839844 C 63.976562 54.875 62.09375 57.523438 59.339844 59.109375 C 56.773438 60.589844 53.699219 61.03125 50.441406 61.5 C 48.699219 61.75 46.894531 62.007812 45.132812 62.441406 C 40.472656 63.582031 35.957031 65.816406 31.59375 67.972656 C 22.859375 72.289062 15.3125 76.015625 8.203125 71.113281 C 2.992188 67.519531 3.230469 60.871094 3.839844 57.226562 C 4.402344 53.851562 5.921875 50.742188 7.394531 47.738281 C 7.648438 47.214844 7.894531 46.707031 8.136719 46.199219 C 8.867188 46.492188 9.640625 46.6875 10.449219 46.777344 C 8.953125 51.695312 11.308594 57.042969 16.25 59.566406 L 16.925781 59.914062 L 17.644531 59.660156 C 21.550781 58.277344 25.148438 56.054688 28.34375 53.054688 C 30.40625 51.117188 32.179688 48.976562 33.640625 46.683594 C 34.078125 46.75 34.523438 46.785156 34.980469 46.785156 C 39.917969 46.785156 43.933594 42.789062 43.933594 37.875 C 43.933594 35.234375 42.769531 32.855469 40.929688 31.222656 L 46.554688 19.902344 L 52.238281 31.441406 C 50.535156 33.0625 49.46875 35.347656 49.46875 37.875 C 49.46875 42.789062 53.484375 46.785156 58.421875 46.785156 C 60.316406 46.785156 62.078125 46.191406 63.527344 45.1875 C 64.53125 47.238281 64.90625 49.542969 64.507812 51.839844 Z M 64.507812 51.839844 "/>
</g>
</svg>
