<?xml version="1.0" encoding="UTF-8"?>
<svg xmlns="http://www.w3.org/2000/svg" xmlns:xlink="http://www.w3.org/1999/xlink" width="151pt" height="40pt" viewBox="0 0 151 40" version="1.1">
<g id="surface1">
<path style=" stroke:none;fill-rule:nonzero;fill:rgb(0%,40%,60%);fill-opacity:1;" d="M 111.246094 2.867188 C 111.246094 1.285156 112.558594 0 114.183594 0 L 148.042969 0 C 149.664062 0 150.976562 1.285156 150.976562 2.867188 L 150.976562 37.136719 C 150.976562 38.71875 149.664062 40 148.042969 40 L 114.183594 40 C 112.558594 40 111.246094 38.71875 111.246094 37.136719 L 111.246094 2.863281 Z M 111.246094 2.867188 "/>
<path style=" stroke:none;fill-rule:nonzero;fill:rgb(0%,0%,0%);fill-opacity:1;" d="M 0.0195312 33.507812 L 16.601562 33.507812 L 16.601562 28.058594 L 6.023438 28.058594 L 6.023438 7.28125 L 0.0195312 7.28125 Z M 24.996094 33.507812 L 24.996094 15.445312 L 18.996094 15.445312 L 18.996094 33.507812 Z M 21.996094 12.976562 C 24.089844 12.976562 25.390625 11.589844 25.390625 9.855469 C 25.355469 8.085938 24.089844 6.738281 22.039062 6.738281 C 19.984375 6.738281 18.640625 8.085938 18.640625 9.855469 C 18.640625 11.589844 19.945312 12.976562 21.957031 12.976562 Z M 27.785156 33.507812 L 33.785156 33.507812 L 33.785156 23.417969 C 33.785156 22.878906 33.824219 22.339844 33.984375 21.953125 C 34.414062 20.875 35.402344 19.757812 37.0625 19.757812 C 39.234375 19.757812 40.101562 21.414062 40.101562 23.84375 L 40.101562 33.503906 L 46.101562 33.503906 L 46.101562 23.148438 C 46.101562 17.601562 43.140625 15.019531 39.191406 15.019531 C 35.957031 15.019531 34.535156 16.828125 33.746094 18.0625 L 33.785156 18.0625 L 33.785156 15.445312 L 27.785156 15.445312 C 27.863281 17.140625 27.785156 33.507812 27.785156 33.507812 Z M 54.570312 7.28125 L 48.566406 7.28125 L 48.566406 33.507812 L 54.570312 33.507812 L 54.570312 27.648438 L 56.070312 25.761719 L 60.769531 33.507812 L 68.148438 33.507812 L 60.253906 22.292969 L 67.164062 14.664062 L 59.9375 14.664062 C 59.9375 14.664062 55.003906 21.488281 54.570312 22.300781 Z M 54.570312 7.28125 "/>
<path style=" stroke:none;fill-rule:nonzero;fill:rgb(0%,0%,0%);fill-opacity:1;" d="M 84.199219 25.972656 C 84.277344 25.507812 84.394531 24.617188 84.394531 23.613281 C 84.394531 18.941406 82.027344 14.203125 75.789062 14.203125 C 69.117188 14.203125 66.035156 19.480469 66.035156 24.269531 C 66.035156 30.191406 69.789062 33.890625 76.339844 33.890625 C 78.949219 33.890625 81.355469 33.503906 83.332031 32.695312 L 82.539062 28.730469 C 80.921875 29.269531 79.261719 29.539062 77.210938 29.539062 C 74.40625 29.539062 71.960938 28.386719 71.761719 25.933594 L 84.199219 25.96875 Z M 71.722656 21.910156 C 71.878906 20.367188 72.90625 18.09375 75.472656 18.09375 C 78.199219 18.09375 78.832031 20.523438 78.832031 21.910156 Z M 99.210938 7.28125 L 99.210938 16.359375 L 99.128906 16.359375 C 98.261719 15.089844 96.445312 14.242188 94.039062 14.242188 C 89.417969 14.242188 85.351562 17.941406 85.390625 24.257812 C 85.390625 30.117188 89.0625 33.929688 93.640625 33.929688 C 96.128906 33.929688 98.496094 32.851562 99.683594 30.769531 L 99.800781 30.769531 L 100.039062 33.507812 L 105.367188 33.507812 C 105.289062 32.234375 105.210938 30.039062 105.210938 27.878906 L 105.210938 7.28125 L 99.207031 7.28125 Z M 99.210938 25.144531 C 99.210938 25.605469 99.167969 26.070312 99.089844 26.453125 C 98.734375 28.113281 97.3125 29.265625 95.578125 29.265625 C 93.089844 29.265625 91.472656 27.261719 91.472656 24.105469 C 91.472656 21.136719 92.855469 18.75 95.617188 18.75 C 97.472656 18.75 98.773438 20.019531 99.128906 21.597656 C 99.210938 21.949219 99.210938 22.332031 99.210938 22.679688 Z M 99.210938 25.144531 "/>
<path style=" stroke:none;fill-rule:nonzero;fill:rgb(100%,100%,100%);fill-opacity:1;" d="M 123.289062 33.484375 L 123.289062 15.421875 L 117.289062 15.421875 L 117.289062 33.484375 Z M 120.289062 12.957031 C 122.382812 12.957031 123.683594 11.570312 123.683594 9.835938 C 123.644531 8.0625 122.382812 6.714844 120.328125 6.714844 C 118.277344 6.714844 116.933594 8.0625 116.933594 9.835938 C 116.933594 11.570312 118.238281 12.957031 120.25 12.957031 Z M 126.613281 33.484375 L 132.613281 33.484375 L 132.613281 23.398438 C 132.613281 22.859375 132.652344 22.320312 132.808594 21.933594 C 133.242188 20.855469 134.230469 19.738281 135.890625 19.738281 C 138.058594 19.738281 138.929688 21.394531 138.929688 23.820312 L 138.929688 33.484375 L 144.929688 33.484375 L 144.929688 23.128906 C 144.929688 17.578125 141.96875 15 138.019531 15 C 134.785156 15 133.363281 16.808594 132.574219 18.042969 L 132.613281 18.042969 L 132.613281 15.421875 L 126.613281 15.421875 C 126.691406 17.117188 126.613281 33.484375 126.613281 33.484375 Z M 126.613281 33.484375 "/>
</g>
</svg>
