<?xml version="1.0" encoding="UTF-8"?>
<svg xmlns="http://www.w3.org/2000/svg" xmlns:xlink="http://www.w3.org/1999/xlink" width="75pt" height="20pt" viewBox="0 0 75 20" version="1.1">
<g id="surface1">
<path style=" stroke:none;fill-rule:nonzero;fill:rgb(0%,40%,60%);fill-opacity:1;" d="M 55.253906 1.433594 C 55.253906 0.640625 55.90625 0 56.710938 0 L 73.53125 0 C 74.335938 0 74.988281 0.640625 74.988281 1.433594 L 74.988281 18.566406 C 74.988281 19.359375 74.335938 20 73.53125 20 L 56.710938 20 C 55.90625 20 55.253906 19.359375 55.253906 18.566406 Z M 55.253906 1.433594 "/>
<path style=" stroke:none;fill-rule:nonzero;fill:rgb(0%,0%,0%);fill-opacity:1;" d="M 0.0117188 16.753906 L 8.246094 16.753906 L 8.246094 14.03125 L 2.992188 14.03125 L 2.992188 3.640625 L 0.0117188 3.640625 Z M 12.414062 16.753906 L 12.414062 7.722656 L 9.433594 7.722656 L 9.433594 16.753906 Z M 10.925781 6.488281 C 11.964844 6.488281 12.613281 5.796875 12.613281 4.929688 C 12.59375 4.042969 11.964844 3.367188 10.945312 3.367188 C 9.925781 3.367188 9.257812 4.042969 9.257812 4.929688 C 9.257812 5.796875 9.90625 6.488281 10.90625 6.488281 Z M 13.800781 16.753906 L 16.78125 16.753906 L 16.78125 11.710938 C 16.78125 11.441406 16.800781 11.167969 16.878906 10.976562 C 17.09375 10.4375 17.585938 9.878906 18.40625 9.878906 C 19.488281 9.878906 19.917969 10.707031 19.917969 11.921875 L 19.917969 16.753906 L 22.898438 16.753906 L 22.898438 11.574219 C 22.898438 8.800781 21.429688 7.507812 19.464844 7.507812 C 17.859375 7.507812 17.152344 8.414062 16.761719 9.03125 L 16.78125 9.03125 L 16.78125 7.722656 L 13.800781 7.722656 C 13.839844 8.570312 13.800781 16.753906 13.800781 16.753906 Z M 27.105469 3.640625 L 24.125 3.640625 L 24.125 16.753906 L 27.105469 16.753906 L 27.105469 13.824219 L 27.847656 12.878906 L 30.183594 16.753906 L 33.847656 16.753906 L 29.929688 11.148438 L 33.359375 7.332031 L 29.769531 7.332031 C 29.769531 7.332031 27.320312 10.746094 27.105469 11.148438 Z M 27.105469 3.640625 "/>
<path style=" stroke:none;fill-rule:nonzero;fill:rgb(0%,0%,0%);fill-opacity:1;" d="M 41.820312 12.984375 C 41.859375 12.753906 41.917969 12.308594 41.917969 11.804688 C 41.917969 9.472656 40.742188 7.101562 37.644531 7.101562 C 34.328125 7.101562 32.800781 9.742188 32.800781 12.136719 C 32.800781 15.097656 34.664062 16.945312 37.917969 16.945312 C 39.210938 16.945312 40.410156 16.753906 41.390625 16.347656 L 40.996094 14.367188 C 40.191406 14.632812 39.367188 14.769531 38.347656 14.769531 C 36.957031 14.769531 35.742188 14.191406 35.644531 12.964844 Z M 35.625 10.953125 C 35.703125 10.183594 36.210938 9.046875 37.488281 9.046875 C 38.839844 9.046875 39.152344 10.261719 39.152344 10.953125 Z M 49.277344 3.640625 L 49.277344 8.179688 L 49.238281 8.179688 C 48.804688 7.542969 47.902344 7.121094 46.707031 7.121094 C 44.414062 7.121094 42.394531 8.96875 42.414062 12.128906 C 42.414062 15.058594 44.238281 16.964844 46.511719 16.964844 C 47.746094 16.964844 48.921875 16.425781 49.511719 15.386719 L 49.570312 15.386719 L 49.6875 16.753906 L 52.335938 16.753906 C 52.296875 16.117188 52.257812 15.019531 52.257812 13.941406 L 52.257812 3.640625 Z M 49.277344 12.574219 C 49.277344 12.804688 49.257812 13.035156 49.21875 13.226562 C 49.042969 14.054688 48.335938 14.632812 47.472656 14.632812 C 46.238281 14.632812 45.433594 13.632812 45.433594 12.050781 C 45.433594 10.570312 46.121094 9.375 47.492188 9.375 C 48.414062 9.375 49.058594 10.011719 49.238281 10.800781 C 49.277344 10.972656 49.277344 11.167969 49.277344 11.339844 Z M 49.277344 12.574219 "/>
<path style=" stroke:none;fill-rule:nonzero;fill:rgb(100%,100%,100%);fill-opacity:1;" d="M 61.238281 16.742188 L 61.238281 7.710938 L 58.257812 7.710938 L 58.257812 16.742188 Z M 59.746094 6.476562 C 60.785156 6.476562 61.433594 5.785156 61.433594 4.917969 C 61.414062 4.03125 60.785156 3.359375 59.765625 3.359375 C 58.746094 3.359375 58.078125 4.03125 58.078125 4.917969 C 58.078125 5.785156 58.726562 6.476562 59.726562 6.476562 Z M 62.886719 16.742188 L 65.867188 16.742188 L 65.867188 11.699219 C 65.867188 11.429688 65.886719 11.160156 65.964844 10.96875 C 66.179688 10.425781 66.671875 9.867188 67.496094 9.867188 C 68.574219 9.867188 69.003906 10.695312 69.003906 11.910156 L 69.003906 16.742188 L 71.984375 16.742188 L 71.984375 11.5625 C 71.984375 8.789062 70.515625 7.5 68.554688 7.5 C 66.945312 7.5 66.238281 8.402344 65.847656 9.019531 L 65.867188 9.019531 L 65.867188 7.710938 L 62.886719 7.710938 C 62.925781 8.558594 62.886719 16.742188 62.886719 16.742188 Z M 62.886719 16.742188 "/>
</g>
</svg>
