<?xml version="1.0" encoding="UTF-8"?>
<svg xmlns="http://www.w3.org/2000/svg" xmlns:xlink="http://www.w3.org/1999/xlink" width="70pt" height="63pt" viewBox="0 0 70 63" version="1.1">
<g id="surface1">
<path style=" stroke:none;fill-rule:nonzero;fill:rgb(100%,100%,100%);fill-opacity:1;" d="M 0.207031 31.429688 C 0.207031 36.695312 5.335938 41.609375 13.425781 44.378906 C 11.808594 52.523438 13.136719 59.089844 17.5625 61.644531 C 22.113281 64.277344 28.894531 62.457031 35.332031 56.820312 C 41.605469 62.226562 47.945312 64.355469 52.371094 61.789062 C 56.917969 59.152344 58.300781 52.144531 56.640625 43.742188 C 65.0625 40.953125 69.777344 36.765625 69.777344 31.429688 C 69.777344 26.289062 64.636719 21.84375 56.65625 19.089844 C 58.445312 10.34375 56.929688 3.9375 52.320312 1.273438 C 47.875 -1.292969 41.460938 0.945312 35.09375 6.496094 C 28.472656 0.605469 22.121094 -1.195312 17.511719 1.476562 C 13.070312 4.050781 11.804688 10.738281 13.425781 19.035156 C 5.609375 21.761719 0.207031 26.3125 0.207031 31.429688 Z M 0.207031 31.429688 "/>
<path style=" stroke:none;fill-rule:nonzero;fill:rgb(32.54902%,75.686275%,87.058824%);fill-opacity:1;" d="M 54.96875 21.824219 C 54.328125 21.601562 53.664062 21.394531 52.980469 21.195312 C 53.089844 20.738281 53.195312 20.28125 53.285156 19.835938 C 54.792969 12.515625 53.808594 6.617188 50.445312 4.675781 C 47.222656 2.816406 41.953125 4.753906 36.628906 9.398438 C 36.117188 9.84375 35.601562 10.316406 35.089844 10.8125 C 34.746094 10.484375 34.40625 10.167969 34.066406 9.863281 C 28.484375 4.902344 22.894531 2.808594 19.535156 4.757812 C 16.316406 6.625 15.363281 12.167969 16.714844 19.105469 C 16.847656 19.777344 17 20.460938 17.171875 21.15625 C 16.382812 21.382812 15.617188 21.621094 14.886719 21.878906 C 8.34375 24.164062 4.167969 27.742188 4.167969 31.457031 C 4.167969 35.292969 8.652344 39.140625 15.464844 41.472656 C 16.003906 41.65625 16.5625 41.832031 17.136719 41.996094 C 16.949219 42.75 16.789062 43.484375 16.652344 44.207031 C 15.359375 51.023438 16.367188 56.4375 19.578125 58.292969 C 22.898438 60.207031 28.464844 58.238281 33.886719 53.492188 C 34.3125 53.117188 34.742188 52.71875 35.175781 52.300781 C 35.734375 52.839844 36.289062 53.351562 36.84375 53.828125 C 42.09375 58.355469 47.28125 60.183594 50.492188 58.320312 C 53.804688 56.398438 54.882812 50.585938 53.484375 43.507812 C 53.375 42.96875 53.253906 42.417969 53.113281 41.855469 C 53.503906 41.738281 53.886719 41.621094 54.261719 41.496094 C 61.34375 39.144531 65.953125 35.34375 65.953125 31.457031 C 65.953125 27.730469 61.640625 24.125 54.96875 21.824219 Z M 54.96875 21.824219 "/>
<path style=" stroke:none;fill-rule:nonzero;fill:rgb(100%,100%,100%);fill-opacity:1;" d="M 53.429688 38.984375 C 53.09375 39.097656 52.746094 39.207031 52.394531 39.3125 C 51.613281 36.832031 50.554688 34.195312 49.265625 31.46875 C 50.496094 28.808594 51.511719 26.207031 52.273438 23.742188 C 52.902344 23.925781 53.515625 24.121094 54.109375 24.324219 C 59.824219 26.296875 63.3125 29.210938 63.3125 31.457031 C 63.3125 33.847656 59.546875 36.957031 53.429688 38.984375 Z M 50.894531 44.023438 C 51.511719 47.152344 51.601562 49.980469 51.191406 52.191406 C 50.824219 54.179688 50.082031 55.503906 49.167969 56.035156 C 47.21875 57.164062 43.058594 55.695312 38.566406 51.824219 C 38.050781 51.378906 37.53125 50.90625 37.011719 50.40625 C 38.753906 48.496094 40.492188 46.28125 42.191406 43.816406 C 45.179688 43.550781 48 43.117188 50.558594 42.523438 C 50.683594 43.035156 50.796875 43.535156 50.894531 44.023438 Z M 25.230469 55.839844 C 23.328125 56.511719 21.8125 56.53125 20.898438 56 C 18.949219 54.875 18.140625 50.527344 19.246094 44.699219 C 19.371094 44.03125 19.523438 43.34375 19.695312 42.644531 C 22.226562 43.203125 25.027344 43.609375 28.023438 43.851562 C 29.730469 46.261719 31.519531 48.476562 33.324219 50.414062 C 32.929688 50.796875 32.539062 51.160156 32.148438 51.5 C 29.75 53.601562 27.347656 55.089844 25.230469 55.839844 Z M 16.320312 38.972656 C 13.308594 37.9375 10.820312 36.597656 9.113281 35.136719 C 7.582031 33.820312 6.808594 32.515625 6.808594 31.457031 C 6.808594 29.203125 10.160156 26.328125 15.753906 24.375 C 16.433594 24.136719 17.144531 23.914062 17.882812 23.703125 C 18.65625 26.222656 19.667969 28.859375 20.894531 31.519531 C 19.652344 34.222656 18.625 36.898438 17.84375 39.449219 C 17.320312 39.296875 16.808594 39.136719 16.320312 38.972656 Z M 19.308594 18.601562 C 18.144531 12.65625 18.917969 8.171875 20.859375 7.046875 C 22.925781 5.847656 27.496094 7.554688 32.3125 11.839844 C 32.621094 12.113281 32.929688 12.402344 33.238281 12.699219 C 31.445312 14.628906 29.671875 16.828125 27.976562 19.222656 C 25.070312 19.492188 22.289062 19.925781 19.730469 20.507812 C 19.570312 19.859375 19.429688 19.222656 19.308594 18.601562 Z M 45.957031 25.191406 C 45.347656 24.132812 44.71875 23.101562 44.078125 22.097656 C 46.050781 22.347656 47.941406 22.675781 49.714844 23.082031 C 49.179688 24.792969 48.515625 26.582031 47.734375 28.414062 C 47.175781 27.347656 46.582031 26.273438 45.957031 25.191406 Z M 35.089844 14.585938 C 36.308594 15.910156 37.527344 17.382812 38.726562 18.984375 C 37.515625 18.925781 36.292969 18.898438 35.058594 18.898438 C 33.839844 18.898438 32.625 18.925781 31.421875 18.984375 C 32.625 17.398438 33.851562 15.925781 35.089844 14.585938 Z M 24.152344 25.210938 C 23.542969 26.269531 22.960938 27.339844 22.40625 28.410156 C 21.640625 26.585938 20.980469 24.789062 20.445312 23.054688 C 22.207031 22.660156 24.085938 22.335938 26.046875 22.09375 C 25.398438 23.105469 24.765625 24.144531 24.152344 25.210938 Z M 26.101562 41.011719 C 24.078125 40.785156 22.171875 40.476562 20.410156 40.09375 C 20.953125 38.328125 21.625 36.496094 22.410156 34.628906 C 22.964844 35.699219 23.546875 36.769531 24.164062 37.832031 C 24.789062 38.914062 25.4375 39.976562 26.101562 41.011719 Z M 35.164062 48.511719 C 33.910156 47.160156 32.664062 45.664062 31.445312 44.054688 C 32.628906 44.101562 33.835938 44.125 35.058594 44.125 C 36.320312 44.125 37.566406 44.097656 38.789062 44.042969 C 37.585938 45.679688 36.371094 47.179688 35.164062 48.511719 Z M 47.761719 34.535156 C 48.585938 36.417969 49.28125 38.242188 49.835938 39.980469 C 48.042969 40.386719 46.109375 40.71875 44.070312 40.960938 C 44.714844 39.945312 45.347656 38.894531 45.96875 37.8125 C 46.597656 36.71875 47.195312 35.625 47.761719 34.535156 Z M 43.683594 36.492188 C 42.714844 38.171875 41.726562 39.773438 40.71875 41.28125 C 38.886719 41.414062 36.992188 41.480469 35.058594 41.480469 C 33.136719 41.480469 31.265625 41.421875 29.464844 41.304688 C 28.417969 39.773438 27.40625 38.167969 26.445312 36.507812 C 25.488281 34.851562 24.609375 33.179688 23.8125 31.519531 C 24.609375 29.855469 25.488281 28.183594 26.4375 26.53125 C 27.394531 24.875 28.398438 23.273438 29.433594 21.753906 C 31.273438 21.613281 33.15625 21.542969 35.058594 21.542969 C 36.972656 21.542969 38.859375 21.613281 40.695312 21.753906 C 41.71875 23.265625 42.714844 24.859375 43.675781 26.515625 C 44.644531 28.191406 45.53125 29.855469 46.335938 31.484375 C 45.535156 33.140625 44.648438 34.816406 43.683594 36.492188 Z M 49.128906 6.96875 C 51.195312 8.164062 52 12.984375 50.699219 19.304688 C 50.617188 19.707031 50.523438 20.117188 50.421875 20.535156 C 47.859375 19.941406 45.078125 19.5 42.164062 19.226562 C 40.464844 16.804688 38.707031 14.601562 36.9375 12.695312 C 37.414062 12.238281 37.886719 11.804688 38.359375 11.390625 C 42.921875 7.414062 47.183594 5.84375 49.128906 6.96875 Z M 49.128906 6.96875 "/>
<path style=" stroke:none;fill-rule:nonzero;fill:rgb(32.54902%,75.686275%,87.058824%);fill-opacity:1;" d="M 35.058594 25.929688 C 38.109375 25.929688 40.578125 28.40625 40.578125 31.457031 C 40.578125 34.507812 38.109375 36.984375 35.058594 36.984375 C 32.011719 36.984375 29.542969 34.507812 29.542969 31.457031 C 29.542969 28.40625 32.011719 25.929688 35.058594 25.929688 "/>
</g>
</svg>
