<?xml version="1.0" encoding="UTF-8"?>
<svg xmlns="http://www.w3.org/2000/svg" xmlns:xlink="http://www.w3.org/1999/xlink" width="70pt" height="67pt" viewBox="0 0 70 67" version="1.1">
<g id="surface1">
<path style=" stroke:none;fill-rule:nonzero;fill:rgb(46.27451%,29.019608%,73.72549%);fill-opacity:1;" d="M 48.503906 46.605469 C 51.085938 46.339844 53.046875 44.101562 52.957031 41.417969 C 52.867188 38.734375 50.640625 36.585938 47.96875 36.585938 L 47.789062 36.585938 C 45.027344 36.675781 42.890625 39.003906 42.980469 41.777344 C 43.070312 43.117188 43.601562 44.28125 44.40625 45.085938 C 41.375 51.078125 36.746094 55.464844 29.796875 59.132812 C 25.074219 61.636719 20.175781 62.53125 15.277344 61.902344 C 11.269531 61.367188 8.148438 59.578125 6.191406 56.625 C 3.339844 52.242188 3.074219 47.5 5.476562 42.761719 C 7.171875 39.359375 9.84375 36.855469 11.535156 35.605469 C 11.179688 34.441406 10.644531 32.472656 10.378906 31.042969 C -2.539062 40.433594 -1.203125 53.136719 2.714844 59.132812 C 5.65625 63.605469 11.625 66.375 18.214844 66.375 C 19.996094 66.375 21.777344 66.199219 23.5625 65.75 C 34.960938 63.515625 43.601562 56.714844 48.503906 46.605469 Z M 64.179688 35.515625 C 57.410156 27.550781 47.433594 23.167969 36.03125 23.167969 L 34.605469 23.167969 C 33.804688 21.558594 32.113281 20.484375 30.242188 20.484375 L 30.0625 20.484375 C 27.300781 20.574219 25.164062 22.902344 25.253906 25.675781 C 25.34375 28.359375 27.570312 30.503906 30.242188 30.503906 L 30.417969 30.503906 C 32.378906 30.414062 34.070312 29.164062 34.785156 27.464844 L 36.386719 27.464844 C 43.15625 27.464844 49.570312 29.429688 55.363281 33.277344 C 59.816406 36.230469 63.023438 40.078125 64.804688 44.726562 C 66.316406 48.484375 66.230469 52.152344 64.625 55.285156 C 62.132812 60.027344 57.945312 62.621094 52.421875 62.621094 C 48.859375 62.621094 45.472656 61.546875 43.691406 60.742188 C 42.710938 61.636719 40.929688 63.066406 39.683594 63.960938 C 43.515625 65.75 47.433594 66.734375 51.175781 66.734375 C 59.726562 66.734375 66.050781 61.992188 68.457031 57.253906 C 71.039062 52.0625 70.859375 43.117188 64.179688 35.515625 Z M 18.929688 48.128906 C 19.019531 50.8125 21.246094 52.957031 23.917969 52.957031 L 24.09375 52.957031 C 26.855469 52.867188 28.996094 50.542969 28.90625 47.769531 C 28.816406 45.085938 26.589844 42.9375 23.917969 42.9375 L 23.738281 42.9375 C 23.5625 42.9375 23.292969 42.9375 23.117188 43.027344 C 19.464844 36.945312 17.949219 30.324219 18.484375 23.167969 C 18.839844 17.800781 20.621094 13.148438 23.738281 9.304688 C 26.320312 5.992188 31.3125 4.382812 34.695312 4.292969 C 44.136719 4.113281 48.144531 15.921875 48.414062 20.664062 C 49.570312 20.933594 51.53125 21.558594 52.867188 22.007812 C 51.796875 7.515625 42.890625 0 34.339844 0 C 26.320312 0 18.929688 5.816406 15.988281 14.402344 C 11.890625 25.851562 14.5625 36.855469 19.550781 45.535156 C 19.105469 46.160156 18.839844 47.144531 18.929688 48.128906 Z M 18.929688 48.128906 "/>
</g>
</svg>
